<?xml version="1.0" standalone="no"?>
<!DOCTYPE svg PUBLIC "-//W3C//DTD SVG 20010904//EN"
 "http://www.w3.org/TR/2001/REC-SVG-20010904/DTD/svg10.dtd">
<svg version="1.0" xmlns="http://www.w3.org/2000/svg"
 width="700.000000pt" height="700.000000pt" viewBox="0 0 700.000000 700.000000"
 preserveAspectRatio="xMidYMid meet">
<metadata>
Created by potrace 1.14, written by Peter Selinger 2001-2017
</metadata>
<g transform="translate(0.000000,700.000000) scale(0.100000,-0.100000)"
fill="#000000" stroke="none">
<path d="M3625 6815 c-44 -7 -96 -17 -115 -23 l-35 -10 30 -2 c17 -1 48 -3 70
-5 22 -2 65 -6 95 -9 238 -21 554 -102 767 -197 24 -11 45 -19 47 -19 3 0 57
-29 121 -65 453 -253 879 -634 1147 -1025 195 -284 347 -623 381 -847 3 -17 7
-35 10 -40 3 -4 8 -35 12 -68 4 -33 11 -89 15 -125 5 -36 8 -141 8 -235 1
-215 0 -204 12 -185 8 13 40 142 55 225 28 151 25 472 -5 685 -68 478 -345
955 -755 1300 -132 111 -448 345 -537 398 -215 126 -446 204 -738 247 -88 13
-502 13 -585 0z"/>
<path d="M2351 6497 c-19 -47 -81 -229 -86 -252 -33 -149 -83 -219 -208 -294
-37 -23 -119 -79 -182 -125 -62 -47 -173 -119 -247 -162 -224 -129 -205 -123
-347 -121 l-124 2 -53 -60 c-29 -33 -64 -83 -76 -112 -20 -47 -28 -54 -63 -64
-87 -24 -154 -75 -213 -160 -38 -56 -75 -73 -139 -65 -136 18 -217 18 -263 -2
-39 -17 -50 -28 -80 -87 -31 -60 -41 -70 -86 -92 -43 -19 -56 -22 -80 -12 -16
6 -29 11 -29 12 0 0 -15 -8 -32 -18 -29 -17 -33 -24 -33 -62 0 -78 118 -283
249 -432 l21 -24 0 106 c0 100 2 109 28 146 l27 40 76 1 c57 0 80 4 90 16 7 9
31 28 54 44 23 16 52 49 65 73 22 41 29 46 79 58 128 30 231 7 333 -73 34 -26
36 -31 27 -57 -18 -51 -43 -65 -117 -66 -87 -1 -139 -26 -217 -105 -57 -57
-60 -64 -86 -160 -15 -55 -24 -100 -20 -100 9 0 83 63 178 152 88 82 112 92
205 91 43 -1 97 -26 98 -45 0 -4 -12 -14 -27 -22 -40 -21 -79 -64 -103 -116
-46 -101 -88 -164 -121 -181 -39 -21 -88 -24 -139 -9 -19 6 -49 13 -67 16 -30
5 -32 3 -39 -30 -11 -62 3 -98 59 -157 72 -75 115 -106 173 -124 63 -19 88
-19 132 2 48 23 65 41 113 121 23 37 47 74 55 83 8 8 29 47 48 85 37 76 90
137 157 180 24 16 60 42 79 58 41 35 141 83 190 91 59 10 84 15 110 21 46 10
174 5 230 -10 30 -8 89 -33 130 -56 195 -107 223 -115 359 -98 107 13 169 38
277 113 93 65 98 67 142 61 64 -9 89 -28 97 -74 8 -50 -11 -95 -60 -144 -49
-48 -64 -55 -352 -154 -136 -46 -249 -87 -252 -89 -2 -3 10 -5 27 -5 40 0 31
2 105 -19 34 -10 83 -28 107 -41 49 -25 154 -109 146 -117 -6 -6 -163 -76
-290 -129 -74 -30 -78 -33 -50 -39 160 -34 256 -72 342 -136 l44 -32 -219 -73
c-133 -44 -207 -73 -190 -74 15 -2 30 -3 35 -4 4 -1 34 -6 67 -10 32 -4 68
-10 79 -12 28 -5 81 -12 149 -20 126 -13 128 -11 -134 -124 -292 -125 -289
-124 -289 -130 0 -3 31 -6 69 -7 67 -1 186 -27 205 -44 6 -5 16 -9 23 -9 18 0
113 -60 113 -71 0 -5 -7 -9 -15 -9 -8 0 -34 -6 -57 -14 -24 -7 -83 -26 -133
-41 -49 -14 -137 -45 -195 -67 -107 -40 -125 -48 -218 -90 l-53 -25 68 -31
c37 -17 95 -41 128 -53 58 -21 105 -48 153 -87 21 -16 23 -23 16 -67 -5 -36
-14 -55 -37 -74 -16 -13 -35 -30 -42 -37 -7 -7 -14 -11 -16 -9 -2 2 -57 13
-123 24 -135 25 -203 46 -312 97 -86 41 -158 48 -210 20 -16 -8 -83 -60 -149
-116 -66 -55 -170 -132 -232 -171 -134 -85 -153 -112 -153 -225 0 -100 19
-156 101 -309 l74 -135 6 55 c7 62 47 150 84 185 l25 23 1 -44 c2 -88 30 -300
53 -394 23 -95 43 -151 76 -217 80 -160 136 -226 390 -453 80 -71 147 -132
150 -135 12 -14 363 -231 366 -227 3 2 0 15 -5 29 -5 14 -12 40 -15 59 -3 19
-8 44 -10 57 -3 13 -10 58 -16 101 -10 67 -10 83 4 108 29 57 44 51 224 -84
165 -125 169 -127 387 -220 367 -158 453 -187 630 -208 77 -9 263 -6 330 5 81
14 205 51 205 61 0 7 -176 150 -205 167 -8 4 -17 21 -20 37 -9 45 20 71 92 81
32 4 60 8 63 9 7 2 88 16 120 21 14 3 81 16 150 29 69 13 141 27 160 30 75 13
370 77 460 100 475 120 998 469 1281 855 316 430 549 891 710 1405 82 264 78
222 79 788 0 502 0 508 -24 610 -14 56 -32 125 -41 152 -23 70 -106 268 -118
280 -7 7 -8 6 -4 -1 3 -6 9 -37 12 -70 3 -32 8 -75 11 -95 21 -157 21 -586 -1
-739 -2 -19 -7 -63 -10 -97 -3 -34 -8 -72 -10 -84 -3 -13 -7 -41 -10 -64 -3
-22 -10 -62 -15 -90 -6 -27 -12 -59 -14 -71 -21 -108 -94 -378 -143 -524 -58
-175 -168 -416 -254 -558 -21 -35 -39 -66 -39 -67 0 -7 -144 -213 -193 -275
-111 -142 -307 -347 -422 -443 -33 -27 -62 -53 -65 -56 -3 -3 -41 -33 -85 -65
-44 -33 -95 -71 -114 -85 l-34 -26 6 40 c4 22 9 51 12 65 3 14 8 41 11 60 3
19 7 43 10 52 3 9 7 27 9 40 11 57 17 84 22 103 3 12 -13 -1 -38 -30 -79 -89
-134 -139 -227 -208 -70 -51 -322 -157 -392 -164 -25 -2 -88 -10 -140 -17 -52
-7 -178 -14 -280 -15 -102 -2 -197 -4 -213 -6 -38 -5 -100 14 -112 34 -19 33
-12 47 58 111 145 132 203 196 228 250 30 62 45 103 53 142 l6 28 -62 -35
c-35 -18 -103 -46 -153 -60 -78 -23 -110 -27 -241 -28 -160 -1 -177 3 -194 48
-10 26 -2 40 57 101 26 27 89 94 138 149 50 55 108 119 130 143 22 24 54 59
70 77 17 18 44 53 60 77 16 23 46 66 66 93 69 93 125 229 145 352 6 38 10 38
-110 -16 -71 -32 -135 -46 -304 -67 -42 -5 -52 -2 -79 20 -23 19 -30 32 -26
49 9 35 104 155 202 253 88 90 241 289 287 374 14 25 34 61 46 80 24 41 45
112 54 190 9 71 7 246 -3 286 l-8 31 -165 -104 c-192 -121 -202 -126 -235
-113 -48 18 -59 60 -50 195 19 295 12 437 -25 575 -19 70 -20 79 -10 106 l10
25 73 -63 c40 -35 84 -72 98 -83 13 -11 64 -53 113 -94 l88 -74 -6 51 c-12
103 -54 201 -126 297 -25 33 -65 94 -89 135 -23 41 -68 111 -99 155 -66 94
-300 331 -422 428 -47 38 -92 74 -100 80 -8 7 -37 27 -65 44 -27 18 -55 36
-60 40 -48 35 -321 171 -357 178 -49 9 -66 9 -150 1 -70 -7 -78 -6 -97 13 -31
31 -28 83 8 123 112 126 144 169 207 274 59 98 134 269 134 306 0 7 -105 -65
-120 -83 -13 -14 -204 -152 -271 -195 -41 -26 -87 -58 -103 -71 -44 -37 -117
-70 -174 -81 -48 -9 -54 -7 -76 15 -14 13 -24 32 -24 41 1 19 -11 132 -18 165
-2 12 -9 60 -15 107 -19 154 -19 154 -38 107z m539 -895 c91 -33 187 -81 298
-149 57 -35 112 -67 121 -71 28 -10 212 -125 207 -129 -2 -2 -21 3 -42 13 -57
24 -132 53 -194 73 -30 11 -102 36 -160 56 -58 21 -118 41 -135 45 -16 4 -70
20 -119 34 -49 14 -103 29 -120 32 -104 19 -147 25 -193 29 -29 2 -62 10 -74
18 -20 15 -20 16 -2 25 18 10 92 32 127 39 11 2 22 6 25 8 12 13 210 -5 261
-23z m-1449 -303 c16 -11 29 -24 29 -28 0 -4 -21 -16 -46 -26 -27 -11 -69 -42
-98 -73 -61 -62 -84 -68 -171 -40 -129 42 -132 53 -13 72 52 8 101 32 138 66
72 68 100 73 161 29z"/>
<path d="M4810 5745 c0 -3 19 -25 43 -49 338 -347 538 -658 676 -1050 30 -84
77 -254 87 -314 3 -15 7 -34 9 -42 2 -8 7 -37 11 -65 3 -27 7 -52 9 -55 7 -12
19 -193 19 -290 0 -163 -13 -312 -39 -445 -8 -38 -16 -81 -19 -95 -26 -151
-130 -437 -227 -626 -174 -338 -382 -606 -685 -880 -126 -114 -144 -132 -144
-144 0 -22 191 76 345 177 281 186 484 367 636 568 91 121 180 278 262 465 25
57 66 188 92 290 28 113 34 147 55 300 9 67 6 445 -3 490 -3 14 -8 47 -12 74
-3 28 -12 80 -20 116 -8 36 -16 77 -19 90 -122 610 -419 1071 -891 1387 -81
54 -185 109 -185 98z"/>
</g>
</svg>
