<?xml version="1.0" encoding="utf-8"?>
<!-- Generator: Adobe Illustrator 24.0.0, SVG Export Plug-In . SVG Version: 6.00 Build 0)  -->
<svg version="1.1" id="Warstwa_2" xmlns="http://www.w3.org/2000/svg" xmlns:xlink="http://www.w3.org/1999/xlink" x="0px" y="0px"
	 viewBox="0 0 1920 1920" style="enable-background:new 0 0 1920 1920;" xml:space="preserve">
<style type="text/css">
	.st0{stroke:#000000;stroke-miterlimit:10;}
	.st1{fill:#ffffff;stroke:#000000;stroke-miterlimit:10;}
</style>
<path class="st0" d="M967.9,54.2c0.9-9.4,74.9-13.3,135.5-7.3c139.6,13.8,240.1,81,292.9,117.2c71.5,49,198.1,135.7,267.3,300.2
	c78.4,186.5,41.1,373,33,373.5c-5,0.3-3.9-66.5-29.3-164.8c-12-46.5-43.9-165.4-128.1-281.9c-114.3-158.1-290.5-264-450.3-303.9
	C1036.3,74,967,63.4,967.9,54.2z"/>
<path class="st0" d="M1334,361.7c6.6-7.1,59.4,26.5,102.5,65.9c12.9,11.8,68.2,63.6,117.2,161.1c54.5,108.5,66.5,204.4,69.6,234.3
	c4.9,47.1,15,156.9-33,285.6c-9.7,25.9-68.9,178.8-219.7,281.9c-53.1,36.3-116.2,65.5-120.8,58.6c-4.6-6.9,52.5-43.6,109.8-102.5
	c31.2-32.1,129.9-137.2,172.1-303.9c21.6-85.3,20.6-156.3,18.3-194.1c-6.8-110.3-41.3-191.1-58.6-230.7
	c-31.5-71.9-71.5-131.5-84.2-150.1C1362.9,402.7,1328.2,368.1,1334,361.7z"/>
<path class="st0" d="M1875.9,592.4c13.1-1.2,46.1,145.1,43.9,300.2c-1.5,105.7-18.8,178.4-25.6,205c-8,31.1-24.7,88.4-62.2,164.8
	c-52,106-127.7,260.2-263.6,358.8c-211.1,153.2-507.7,128.6-505.3,168.4c0.6,9.3,17.8,25.7,29.3,36.6c22.8,21.6,37.3,24.3,36.6,29.3
	c-1.9,14.1-122.6,34.1-245.3-7.3c-56.1-19-155.2-52.4-201.4-106.2c-4.5-5.3-21.8-26.1-33-22c-11.5,4.3-11.1,33-11,40.3
	c0.5,35.2,15.7,49.8,11,54.9c-11.7,12.6-123.5-56.9-212.4-164.8c-37.7-45.8-47.2-69.2-51.3-80.6c-25.2-70.7-6-140.4-18.3-142.8
	c-6.5-1.3-15.9,17.2-18.3,22c-11.6,22.9-7,39.2-11,40.3c-10.2,2.8-73.5-94.6-40.3-153.8c9.9-17.7,17-11.6,80.6-58.6
	c47.1-34.8,52.4-45,73.2-47.6c19.9-2.5,23.6,5.8,84.2,25.6c64.7,21.2,79.3,17.9,87.9,11c9.5-7.7,13.3-21.9,11-33
	c-1.4-6.8-6.2-17.1-33.2-31.6c-41-22.1-69.1-19.3-70-27c-0.9-7.4,24.2-17.5,99-40c72.1-21.7,99.6-27.6,99.4-36.8
	c-0.2-11.6-43.9-20.1-54.4-22.2c-42-8.2-68.8-1.8-70-7c-1.6-7.1,46.5-24.9,78-35c46.8-15,72.3-17.8,72-23.7
	c-0.3-7.4-41.4-11.7-66-14.3c-56.9-6-87-2.2-88-8c-1.1-6.4,34.2-20.7,66-27c14-2.8,24-3.4,43-9c18.3-5.4,37.6-11.2,37.7-18.6
	c0.2-9.6-31.6-17.6-50.7-22.4c-51.8-13.1-87.8-11.8-88-16c-0.2-4.1,34.9-7.3,87-23c46.1-13.9,48-20.3,48.1-22.8
	c0.1-9.6-26.6-17.3-58.1-26.2c-52.4-14.8-80.6-15.2-81-21c-0.3-4.5,16.1-12.2,95.1-26c0,0,41.9-12.7,87.9-43.9
	c18.2-12.4,26.1-20.3,25.6-29.3c-0.8-13.3-19.8-25.5-36.6-25.6c-13.9-0.1-23.1,7.8-33,14.6c-39.7,27.3-87.7,30.3-106.2,29.3
	c-35.4-2-32.7-19.2-87.9-33c-23.5-5.9-48.6-12.1-80.6-7.3c-45.3,6.8-78.4,32-98.9,47.6c-7.9,6-17.8,13.6-29.3,25.6
	c-28.6,29.9-28.9,47.2-54.9,73.2c-16.4,16.4-27.6,27.6-43.9,29.3c-43.3,4.6-87.3-60.4-76.9-76.9c7.7-12.1,40.4,9.2,69.6-11
	c10.4-7.2,16.9-17.4,29.3-36.6c12.1-18.9,17.3-33.4,31.3-39.6c1.7-0.8,5.1-2.1,5.3-4.4c0.6-5.7-18-12.9-25.6-14.6
	c-44.8-10.6-98,71.8-106.2,65.9c-7.3-5.2,17.3-82,62.2-91.5c9.8-2.1,30-3,47.5-17.8c8.9-7.6,9-11.9,9-13
	c-0.3-15.7-42.9-25.5-52.9-27.8c-24.4-5.6-42.8-9.4-58.6,0c-15.6,9.3-9.4,23-25.6,36.6c-22.1,18.7-45.4,3.1-62.2,18.3
	c-23,20.8-1.4,69.7-11,73.2C63.3,722.3,5,607.1,5,607.1c0,0,0,0,0,0c0,0-2.3-16,0-21.9c4.3-11.2,30.4-1.8,51.3-14.6
	c3.7-2.3,6.3-4.7,8.2-7.2c10.6-13.5,14.1-23.8,17.4-29.4c14.9-25.9,98.7-7.6,98.6-7.3c0,0.2-33.1-4.2-33-6c0.1-1.6,26.1,4.7,47-9
	c8.7-5.7,7.7-9.1,22.8-21.6c8.4-6.9,14.8-11.8,25.5-17.8c17-9.6,26.3-10.3,36.8-22.5c15.9-18.6,11-28.5,25.6-40.3
	c18.8-15.1,42.7-11.3,58.6-11c36.2,0.6,69.3-22.8,135.5-69.6c67.2-47.5,104.6-74,124.5-124.5c11-27.9,13.4-55,22-54.9
	c9.5,0.1,21.2,34.2,22,65.9c0.6,25.2-6,34.6,0,40.3c14.1,13.5,68.7-21.7,91.5-36.6c78.2-51,109-93.7,117.2-87.9
	c9,6.4-12.6,69.3-58.6,120.8c-34.5,38.6-66.7,52.9-62.2,65.9c4.9,14.4,45.1-1.6,102.5,18.3c22,7.6,44,22.2,87.9,51.3
	c17.8,11.8,39.9,26.1,62.2,43.9c71.1,56.7,113.5,114.6,128.1,135.5c46.9,67,81.7,144.6,73.2,150.1c-1.7,1.1-5.1-1-33-25.6
	c-57.1-50.6-64.3-57.3-69.6-54.9c-11.9,5.5,8.5,48.4,11,120.8c2.5,72-14.8,109.5,3.7,120.8c16,9.8,45.6-8.2,62.2-18.3
	c36.7-22.3,46.6-46.9,54.9-43.9c12.8,4.6,11.7,71.5-14.6,139.1c-49.8,127.7-158.1,176.6-142.8,205c9.4,17.6,59.1,14.7,91.5,3.7
	c32.5-11.1,45.5-29.9,51.3-25.6c10.7,7.9-20.6,84.9-76.9,157.4c-61.6,79.5-119.5,110.4-109.8,131.8c9.2,20.4,70.7,11.8,76.9,11
	c60-8.4,90.4-41.5,98.9-33c8.8,8.9-15.6,54-47.6,87.9c-28.7,30.4-49.7,37.2-47.6,47.6c3.7,18.3,72.8,21.3,120.8,18.3
	c52.8-3.3,154.5-9.7,227-80.6c24.1-23.5,41.7-51,47.6-47.6c10,5.9-35.5,90-22,98.9c6.3,4.1,22.5-10.1,54.9-40.3
	c54.4-50.7,81.6-76.1,95.2-91.5c146.9-166.6,205-395.4,205-395.4C1905.6,769.5,1861.5,593.7,1875.9,592.4z"/>
<path class="st1" d="M291.5,499.5c-0.5,4.4,13.8,9.4,24,13c15.1,5.3,22.6,8,30,6c12.7-3.4,11.1-14.8,29-27
	c15.9-10.8,26.8-10.7,27-16c0.2-6.3-14.7-15.4-29-14c-17.4,1.7-18.5,17.2-41,27C310,497.8,292,494.6,291.5,499.5z"/>
<path class="st1" d="M779.5,379.5c14.3,2.4,29.1,6.7,110,53c49.1,28.1,78.5,45,77,48c-1.9,3.9-51-20.3-141-48
	c-25.4-7.8-41-12.6-64-18c-56.7-13.2-83.7-12.5-84-18C677.1,389.1,726.6,370.8,779.5,379.5z"/>
</svg>
